<mxfile host="Electron" modified="2023-10-13T01:07:25.827Z" agent="Mozilla/5.0 (Windows NT 10.0; Win64; x64) AppleWebKit/537.36 (KHTML, like Gecko) draw.io/22.0.2 Chrome/114.0.5735.289 Electron/25.8.4 Safari/537.36" etag="GEv9ON2Em3yNNRikfsAz" version="22.0.2" type="device">
  <diagram name="PÃ¡gina-1" id="QN1p-4JOyo7EyqsOIxPL">
    <mxGraphModel dx="455" dy="267" grid="1" gridSize="10" guides="1" tooltips="1" connect="1" arrows="1" fold="1" page="1" pageScale="1" pageWidth="827" pageHeight="1169" math="0" shadow="0">
      <root>
        <mxCell id="0" />
        <mxCell id="1" parent="0" />
        <mxCell id="eM_eqZY_c6QgifjpHVVQ-1" value="inicio" style="ellipse;whiteSpace=wrap;html=1;" parent="1" vertex="1">
          <mxGeometry x="350" y="230" width="120" height="80" as="geometry" />
        </mxCell>
        <mxCell id="eM_eqZY_c6QgifjpHVVQ-2" value="" style="endArrow=classic;html=1;rounded=0;" parent="1" edge="1">
          <mxGeometry width="50" height="50" relative="1" as="geometry">
            <mxPoint x="413" y="310" as="sourcePoint" />
            <mxPoint x="413" y="340" as="targetPoint" />
          </mxGeometry>
        </mxCell>
        <mxCell id="eM_eqZY_c6QgifjpHVVQ-3" value="n1+n2+n3+n4+n5/5" style="shape=parallelogram;perimeter=parallelogramPerimeter;whiteSpace=wrap;html=1;fixedSize=1;" parent="1" vertex="1">
          <mxGeometry x="335" y="390" width="150" height="40" as="geometry" />
        </mxCell>
        <mxCell id="eM_eqZY_c6QgifjpHVVQ-4" value="&quot;Ingresa&amp;nbsp; n1,n2,n3,n4,n5&quot;" style="rounded=0;whiteSpace=wrap;html=1;" parent="1" vertex="1">
          <mxGeometry x="309" y="340" width="210" height="20" as="geometry" />
        </mxCell>
        <mxCell id="eM_eqZY_c6QgifjpHVVQ-5" value="" style="endArrow=classic;html=1;rounded=0;" parent="1" edge="1">
          <mxGeometry width="50" height="50" relative="1" as="geometry">
            <mxPoint x="413" y="360" as="sourcePoint" />
            <mxPoint x="413" y="390" as="targetPoint" />
          </mxGeometry>
        </mxCell>
        <mxCell id="eM_eqZY_c6QgifjpHVVQ-8" value="" style="endArrow=classic;html=1;rounded=0;" parent="1" edge="1">
          <mxGeometry width="50" height="50" relative="1" as="geometry">
            <mxPoint x="413" y="430" as="sourcePoint" />
            <mxPoint x="413" y="460" as="targetPoint" />
          </mxGeometry>
        </mxCell>
        <mxCell id="eM_eqZY_c6QgifjpHVVQ-9" value="Promedio=()/5" style="rounded=0;whiteSpace=wrap;html=1;" parent="1" vertex="1">
          <mxGeometry x="345" y="460" width="140" height="30" as="geometry" />
        </mxCell>
        <mxCell id="eM_eqZY_c6QgifjpHVVQ-10" value="" style="endArrow=classic;html=1;rounded=0;" parent="1" edge="1">
          <mxGeometry width="50" height="50" relative="1" as="geometry">
            <mxPoint x="413" y="490" as="sourcePoint" />
            <mxPoint x="413" y="520" as="targetPoint" />
          </mxGeometry>
        </mxCell>
        <mxCell id="eM_eqZY_c6QgifjpHVVQ-12" value="&quot;Tu promedio final es de:&quot;" style="rounded=0;whiteSpace=wrap;html=1;" parent="1" vertex="1">
          <mxGeometry x="340" y="520" width="150" height="30" as="geometry" />
        </mxCell>
        <mxCell id="eM_eqZY_c6QgifjpHVVQ-14" value="" style="endArrow=classic;html=1;rounded=0;" parent="1" edge="1">
          <mxGeometry width="50" height="50" relative="1" as="geometry">
            <mxPoint x="413" y="550" as="sourcePoint" />
            <mxPoint x="413" y="580" as="targetPoint" />
          </mxGeometry>
        </mxCell>
        <mxCell id="eM_eqZY_c6QgifjpHVVQ-15" value="promedio&amp;gt;=7" style="rhombus;whiteSpace=wrap;html=1;" parent="1" vertex="1">
          <mxGeometry x="334" y="580" width="160" height="80" as="geometry" />
        </mxCell>
        <mxCell id="eM_eqZY_c6QgifjpHVVQ-21" value="" style="endArrow=classic;html=1;rounded=0;" parent="1" edge="1">
          <mxGeometry width="50" height="50" relative="1" as="geometry">
            <mxPoint x="494" y="620" as="sourcePoint" />
            <mxPoint x="564" y="670" as="targetPoint" />
            <Array as="points">
              <mxPoint x="564" y="620" />
            </Array>
          </mxGeometry>
        </mxCell>
        <mxCell id="eM_eqZY_c6QgifjpHVVQ-27" value="no" style="edgeLabel;html=1;align=center;verticalAlign=middle;resizable=0;points=[];" parent="eM_eqZY_c6QgifjpHVVQ-21" vertex="1" connectable="0">
          <mxGeometry x="-0.6" y="2" relative="1" as="geometry">
            <mxPoint x="-233" y="-5" as="offset" />
          </mxGeometry>
        </mxCell>
        <mxCell id="eM_eqZY_c6QgifjpHVVQ-22" value="" style="endArrow=classic;html=1;rounded=0;" parent="1" edge="1">
          <mxGeometry width="50" height="50" relative="1" as="geometry">
            <mxPoint x="330" y="620" as="sourcePoint" />
            <mxPoint x="280" y="670" as="targetPoint" />
            <Array as="points">
              <mxPoint x="279" y="620" />
            </Array>
          </mxGeometry>
        </mxCell>
        <mxCell id="eM_eqZY_c6QgifjpHVVQ-24" value="Estas reprobado" style="rounded=0;whiteSpace=wrap;html=1;" parent="1" vertex="1">
          <mxGeometry x="225" y="670" width="120" height="40" as="geometry" />
        </mxCell>
        <mxCell id="eM_eqZY_c6QgifjpHVVQ-25" value="Estas reprobado" style="rounded=0;whiteSpace=wrap;html=1;" parent="1" vertex="1">
          <mxGeometry x="500" y="670" width="120" height="40" as="geometry" />
        </mxCell>
        <mxCell id="eM_eqZY_c6QgifjpHVVQ-26" value="si" style="text;html=1;align=center;verticalAlign=middle;resizable=0;points=[];autosize=1;strokeColor=none;fillColor=none;" parent="1" vertex="1">
          <mxGeometry x="540" y="598" width="30" height="30" as="geometry" />
        </mxCell>
        <mxCell id="eM_eqZY_c6QgifjpHVVQ-29" value="" style="endArrow=classic;html=1;rounded=0;" parent="1" edge="1">
          <mxGeometry width="50" height="50" relative="1" as="geometry">
            <mxPoint x="280" y="710" as="sourcePoint" />
            <mxPoint x="370" y="770" as="targetPoint" />
            <Array as="points">
              <mxPoint x="280" y="770" />
            </Array>
          </mxGeometry>
        </mxCell>
        <mxCell id="eM_eqZY_c6QgifjpHVVQ-30" value="" style="endArrow=classic;html=1;rounded=0;exitX=0.5;exitY=1;exitDx=0;exitDy=0;" parent="1" edge="1">
          <mxGeometry width="50" height="50" relative="1" as="geometry">
            <mxPoint x="570" y="710" as="sourcePoint" />
            <mxPoint x="490" y="770" as="targetPoint" />
            <Array as="points">
              <mxPoint x="570" y="770" />
              <mxPoint x="560" y="770" />
            </Array>
          </mxGeometry>
        </mxCell>
        <mxCell id="eM_eqZY_c6QgifjpHVVQ-32" value="fin" style="ellipse;whiteSpace=wrap;html=1;" parent="1" vertex="1">
          <mxGeometry x="375" y="740" width="110" height="60" as="geometry" />
        </mxCell>
      </root>
    </mxGraphModel>
  </diagram>
</mxfile>
